# xmcd
#
# Track frame offsets:
#	150
#	11750
#	24205
#	36060
#	48488
#	60288
#	72203
#	84523
#	96053
#	107978
#	121415
#
# Disc length: 1773 seconds
#
# Revision: 1
# Processed by: cddbd v1.5.2PL0 Copyright (c) Steve Scherf et al.
# Submitted via: EZCDAudioConverter 6.0.5.1
#
DISCID=8306eb0b
DTITLE=Charlie Rich - Set Me Free
DYEAR=1968
DGENRE=Country
TTITLE0=Set Me Free
TTITLE1=By The Time I Get To Phoenix
TTITLE2=The Proudest, Loneliest Fool
TTITLE3=I Miss You So
TTITLE4=Just Like Old Times
TTITLE5=Try A Little Tenderness
TTITLE6=H20
TTITLE7=Very Much Alone
TTITLE8=I'll Just Go Away
TTITLE9=That's The Day (You Said You'd Stop Loving Me)
TTITLE10=Got To See My Baby
EXTD=
EXTT0=
EXTT1=
EXTT2=
EXTT3=
EXTT4=
EXTT5=
EXTT6=
EXTT7=
EXTT8=
EXTT9=
EXTT10=
PLAYORDER=
